<?xml version="1.0" encoding="utf-8"?>
<svg version="1.1" xmlns="http://www.w3.org/2000/svg" xmlns:xlink="http://www.w3.org/1999/xlink" x="0px" y="0px" viewBox="0 0 1000 1000" enable-background="new 0 0 1000 1000" xml:space="preserve">
<metadata> Svg Vector Icons : http://www.onlinewebfonts.com/icon </metadata>
<g><g transform="translate(0.000000,476.000000) scale(0.100000,-0.100000)"><path d="M6878,4281.6c-386.7-103.4-760-273.7-1051-482.4c-331.2-235.5-654.7-597.3-869.1-976.3c-42.1-70.8-273.8-559-515-1085.4c-285.2-618.3-478.6-1014.6-547.5-1119.9c-63.2-95.7-212.5-269.9-361.8-423.1c-289.1-296.7-329.3-363.7-331.2-557.1c0-109.1,9.6-145.5,67-252.7c109.1-206.7,114.9-187.6-287.1-790.6c-285.2-428.8-348.4-534.1-323.5-547.5c32.5-17.2,658.5-78.5,1137.1-109.1c549.4-34.5,1474-44,1981.3-21.1c708.3,32.5,1520,107.2,1554.4,143.6c7.6,5.8-24.9,90-70.8,187.6c-109.1,227.8-118.7,336.9-51.7,534.1c160.8,470.9,233.6,1028,187.6,1462.5c-40.2,375.2-128.2,673.8-344.6,1154.3c-168.5,375.2-195.2,469-206.7,693c-15.3,310.1,1.9,361.8,327.4,993.5c197.2,380.9,306.3,761.9,271.8,949.5c-7.6,36.4-40.2,99.5-74.6,137.8C7253.2,4304.6,7098.2,4339,6878,4281.6z M5930.5,2285l72.7-151.2l120.6-13.4c67-5.7,143.6-19.1,170.4-24.9c47.9-13.4,45.9-15.3-72.7-134l-122.5-120.6l24.9-137.8c40.2-224,47.9-216.3-126.3-128.3l-153.1,76.6l-153.1-76.6c-95.7-47.9-153.1-67-153.1-53.6c0,13.4,13.4,90,26.8,168.5l28.7,143.6l-124.4,126.3l-126.3,126.4l55.5,11.5c28.7,5.7,105.3,17.2,170.4,23l116.8,13.4l74.6,151.2c40.2,84.2,78.5,151.2,84.2,151.2S5888.3,2367.3,5930.5,2285z M5249,772.7c84.2-164.6,74.7-158.9,304.4-185.7l122.5-13.4l-124.4-126.4L5427,320.9l26.8-160.8c15.3-88,24.9-164.6,19.1-168.5c-5.7-5.7-74.6,24.9-157,68.9l-145.5,78.5l-143.6-78.5c-78.5-42.1-147.4-72.7-151.2-68.9c-5.7,5.7,1.9,84.2,15.3,176.1l23,166.5l-118.7,105.3c-65.1,57.4-118.7,111-118.7,118.7c0,7.7,76.6,24.9,168.5,38.3l170.4,23l72.7,153.1c42.1,82.3,76.6,151.2,80.4,151.2C5170.5,923.9,5208.8,856.9,5249,772.7z M6263.6-412.2l76.6-151.2l176.1-24.9l174.2-23l-126.4-128.3l-126.3-126.3l28.7-162.7c15.3-88.1,24.9-162.7,21-166.5c-3.8-3.8-72.7,28.7-155,72.7l-147.4,80.4l-149.3-80.4c-80.4-42.1-151.2-78.5-157-78.5s3.8,78.5,21.1,174.2l30.6,174.2l-122.5,114.9c-67,63.2-116.8,116.8-112.9,120.6c3.8,5.7,80.4,19.1,168.5,32.5l162.7,24.9l72.7,149.3c40.2,80.4,76.6,147.4,82.3,147.4C6185.1-262.9,6223.3-329.9,6263.6-412.2z M4831.6-1141.6l176.1-24.9l-130.2-118.7l-132.1-118.7l30.6-172.3c17.2-93.8,28.7-172.3,24.9-176.1c-1.9-3.8-72.7,30.6-157,74.6l-151.2,82.3l-149.3-80.4c-82.3-46-153.1-78.5-155.1-76.6c-3.8,3.8,7.7,82.3,23,174.2l28.7,168.5l-128.3,116.8c-128.3,118.7-128.3,118.7-78.5,132.1c28.7,7.7,107.2,21.1,176.1,26.8l124.4,13.4l80.4,160.8l80.4,160.8l78.5-158.9l80.4-158.9L4831.6-1141.6z"/><path d="M2214.8-2563.9c-112.9-172.3-216.3-338.8-229.7-373.3c-38.3-88.1-32.5-193.3,13.4-292.9c82.3-181.9,170.4-231.6,545.6-308.2c905.5-181.9,1749.7-260.4,2620.7-241.2c840.4,19.1,1489.3,112.9,2149.7,312c248.9,74.7,384.8,225.9,386.7,426.9c0,74.7-166.5,666.2-212.5,750.4c-13.4,26.8-28.7,28.7-88.1,15.3c-260.3-61.2-1112.2-130.2-1828.2-149.3c-1049-26.8-2570.9,46-2997.8,143.6c-67,15.3-128.3,26.8-137.8,26.8C2427.3-2253.8,2325.8-2393.5,2214.8-2563.9z"/><path d="M7969.2-2663.5c0-5.7,19.2-78.5,40.2-158.9c97.6-354.1-55.5-710.2-379-882.5c-273.7-145.5-1102.6-317.8-1862.6-388.6c-327.4-30.6-1340-30.6-1694.2,0c-834.6,70.8-1787.9,231.6-2013.8,338.8c-304.4,145.5-490,503.5-419.2,815.5c15.3,67,32.5,139.7,40.2,164.6c19.1,57.4-3.8,55.5-315.9-23c-354.1-90-530.3-151.2-765.7-264.2c-160.8-78.5-225.9-122.5-325.4-224c-174.2-174.2-214.4-321.6-134-495.8c197.2-432.6,1297.9-775.3,2995.9-930.4c666.2-61.2,1039.5-76.6,1866.4-76.6c1207.9,0,2115.3,67,3043.7,229.7c976.3,168.5,1652,449.9,1807.1,752.3c137.8,264.2-30.6,539.8-451.8,744.6c-294.8,143.6-738.9,275.7-1192.6,358c-93.8,17.2-187.6,36.4-204.8,40.2C7984.5-2657.7,7969.2-2657.7,7969.2-2663.5z"/></g></g>
</svg>